<?xml version="1.0" encoding="utf-8"?><svg version="1.1" id="Layer_1" xmlns="http://www.w3.org/2000/svg" xmlns:xlink="http://www.w3.org/1999/xlink" x="0px" y="0px" viewBox="0 0 122.88 98.32" style="enable-background:new 0 0 122.88 98.32" xml:space="preserve"><style type="text/css">.st0{fill-rule:evenodd;clip-rule:evenodd;}</style><g><path class="st0" d="M23.63,58.35v-0.01c0-4.02,2.92-7.28,6.52-7.28c1.28,0,2.48,0.42,3.49,1.14v-0.05 c3.49,3.2,6.35,2.86,7.35-0.53V40.39c0-1.26,1.03-2.3,2.3-2.3h10.36c1.57,0.54,2.12,1.23,2.14,2.04c0.01,0.37-0.09,0.76-0.27,1.18 c-0.49,1.18-1.51,2.55-2.09,4.06c-2.23,5.79,3.4,10.75,9.19,10.42c1.29-0.07,2.56-0.59,3.74-1.37c4.52-2.95,4.94-7.33,2.37-11.54 c-1.32-2.15-2.31-3.86,0.79-4.84l9.79,0.05c1.26,0.01,2.3,1.03,2.3,2.3v9.84c0.59,4.64,3.71,5.52,7.64,1.93v0.05 c1.01-0.72,2.21-1.14,3.49-1.14c3.6,0,6.52,3.26,6.52,7.28v0.01c0,4.01-2.92,7.28-6.52,7.28c-1.28,0-2.48-0.42-3.49-1.14v0.05 c-3.93-3.6-7.06-2.72-7.64,1.93v9.84c0,1.26-1.03,2.3-2.3,2.3H69.06c-4.22-0.74-4.91-3.78-1.44-7.56h-0.05 c0.72-1.01,1.14-2.21,1.14-3.49c0-3.6-3.26-6.52-7.27-6.52s-7.28,2.92-7.28,6.52c0,1.28,0.42,2.48,1.14,3.49h-0.2 c3.47,3.79,2.77,6.83-1.45,7.56H43.3c-1.26,0-2.3-1.03-2.3-2.3V65.07c-1-3.39-3.86-3.72-7.35-0.53v-0.05 c-1.01,0.72-2.21,1.14-3.49,1.14C26.55,65.63,23.63,62.37,23.63,58.35L23.63,58.35L23.63,58.35L23.63,58.35z M8.32,0h106.24 c4.58,0,8.32,3.74,8.32,8.32V90c0,4.57-3.74,8.32-8.32,8.32H8.32C3.74,98.31,0,94.57,0,89.99V8.32C0,3.74,3.74,0,8.32,0L8.32,0 L8.32,0z M117.31,23.29H5.95v66.85c0,0.64,0.25,1.2,0.67,1.63c0.42,0.43,0.99,0.67,1.63,0.67h106.72c0.64,0,1.2-0.25,1.63-0.67 c0.43-0.43,0.67-0.99,0.67-1.63l0-66.85H117.31L117.31,23.29L117.31,23.29z M106.64,9.35c2.27,0,4.11,1.84,4.11,4.11 c0,2.27-1.84,4.11-4.11,4.11c-2.27,0-4.11-1.84-4.11-4.11C102.54,11.19,104.38,9.35,106.64,9.35L106.64,9.35L106.64,9.35z M78.8,9.35c2.27,0,4.11,1.84,4.11,4.11c0,2.27-1.84,4.11-4.11,4.11c-2.27,0-4.11-1.84-4.11-4.11C74.69,11.19,76.53,9.35,78.8,9.35 L78.8,9.35L78.8,9.35z M92.72,9.35c2.27,0,4.11,1.84,4.11,4.11c0,2.27-1.84,4.11-4.11,4.11s-4.11-1.84-4.11-4.11 C88.61,11.19,90.45,9.35,92.72,9.35L92.72,9.35L92.72,9.35z"/></g></svg>